# xmcd CD database file
#
# Track frame offsets:
#	150
#	17015
#	34767
#	52885
#	71815
#	90210
#	112487
#	126225
#	150102
#	167922
#	179705
#
# Disc length: 2657 seconds
#
# Revision: 0
# Processed by: cddbd v1.5.1PL2 Copyright (c) Steve Scherf et al.
# Submitted via: CDex 1.51
#
DISCID=8e0a5f0b
DTITLE=Kotaro Oshio - Dramatic
DYEAR=2003
DGENRE=New Age
TTITLE0=Splash
TTITLE1=Sun Dance
TTITLE2=Wind Song
TTITLE3=Happy Island
TTITLE4=Canon
TTITLE5=Bolero
TTITLE6=Changing Skies
TTITLE7=Promises
TTITLE8=Chaser
TTITLE9=Prologue
TTITLE10=Again...
EXTD=YEAR: 2003
EXTT0=
EXTT1=
EXTT2=
EXTT3=
EXTT4=
EXTT5=
EXTT6=
EXTT7=
EXTT8=
EXTT9=
EXTT10=
PLAYORDER=
